PathFileType	4	(X/Y/Z)	C:/Users/beibeiliu/ov580/test_trc/User2\sequence.23_training_dense_right.trc
DataRate	CameraRate	NumFrames	NumMarkers	Units	OrigDataRate	OrigDataStartFrame	OrigNumFrames
120	120	18	19	mm	120	1	257
Frame#	Time	ThumbCMC			ThumbMCP			ThumbIP			ThumbTip			IndexMCP			IndexPIP			IndexTip			MiddleMCP			MiddlePIP			MiddleTip			RingMCP			RingPIP			RingTip			PinkyMCP			PinkyPIP			PinkyTip			BackHand1			BackHand2			BackHand3	
		X0	Y0	Z0	X1	Y1	Z1	X2	Y2	Z2	X3	Y3	Z3	X4	Y4	Z4	X5	Y5	Z5	X6	Y6	Z6	X7	Y7	Z7	X8	Y8	Z8	X9	Y9	Z9	X10	Y10	Z10	X11	Y11	Z11	X12	Y12	Z12	X13	Y13	Z13	X14	Y14	Z14	X15	Y15	Z15	X16	Y16	Z16	X17	Y17	Z17	X18	Y18	Z18	
0	0	63.7582	-20.6522	100.917	36.6638	-25.7077	70.1448	34.3406	-27.2947	32.2589	42.2585	-29.6438	7.17809	42.0224	11.3092	27.5767	24.559	1.48383	4.5708	8.96305	-3.88968	-13.3322	67.2812	3.10473	8.32715	49.9633	-7.32766	-15.2128	38.4743	-21.1318	-42.9771	77.6175	-27.7822	9.78528	61.8222	-55.846	16.2707	62.5795	-63.8073	52.7937	91.9147	-42.2386	20.2824	72.5673	-55.0687	44.8505	80.4449	-36.048	69.1834	113.189	-0.542435	55.9464	127.322	-4.57168	90.4994	91.154	7.90474	90.6748	
1	0.00833333	61.0566	-18.063	97.7449	40.1516	-25.9382	72.6274	35.5919	-25.8171	32.6352	37.602	-29.9935	7.60249	41.7109	11.8175	29.2057	22.6642	4.82643	7.37563	10.1259	-3.27983	-16.5787	63.4139	6.21337	12.041	45.8313	-5.89617	-16.8329	35.0358	-17.9929	-43.1531	73.3954	-25.5803	9.72589	65.2585	-54.3069	13.3531	60.7	-61.4502	51.7069	91.4904	-39.2853	20.7141	71.7161	-53.3261	45.308	79.3871	-29.895	66.9104	112.372	-0.0197042	56.5508	127.026	-5.10642	89.9257	89.8429	10.4658	89.1872	
2	0.0166667	61.3936	-19.8276	102.876	41.3165	-24.8474	70.5977	34.2	-25.5271	33.0174	41.2836	-27.8397	8.68287	42.3631	13.0631	29.2315	24.3495	7.10831	11.273	12.7044	-0.716402	-13.8988	60.8859	6.09773	8.37186	45.4779	-3.97649	-15.7211	33.9645	-16.928	-43.6422	76.3705	-24.9642	9.59212	61.7746	-50.4235	13.7647	61.1848	-60.9144	49.8406	90.123	-39.0285	19.0334	73.2295	-53.3594	42.7417	77.9819	-33.9972	66.243	113.005	0.653417	55.4217	129.279	-4.23192	86.2413	92.8519	10.1249	89.9831	
3	0.025	60.9271	-18.2994	100.471	39.2671	-24.7496	72.1568	36.9712	-23.654	31.7146	42.7909	-26.9304	6.08311	42.6969	14.3898	31.6226	23.6311	6.61184	7.49063	14.0285	-0.52594	-15.941	66.4662	5.29668	8.33358	49.412	-5.56199	-18.0886	37.8663	-17.0499	-42.8172	74.4756	-24.6832	8.37768	60.8593	-53.9083	15.5659	60.0429	-60.137	50.2512	91.5586	-38.4358	18.5298	73.0032	-53.3004	39.5896	80.3637	-32.498	67.7874	112.313	2.43265	56.6122	129.41	-7.56005	88.7016	89.2984	10.8401	88.4037	
4	0.0333333	61.264	-15.3507	98.7139	41.7538	-21.8658	70.2146	38.4759	-22.1499	31.3359	48.0038	-26.0518	5.08734	45.7226	14.6576	25.6493	28.3614	9.49939	8.09997	17.4904	0.22731	-17.0435	67.0985	7.22119	11.3602	49.8261	-5.70867	-18.0075	38.132	-14.5133	-41.5183	78.4178	-23.1496	10.9211	58.3725	-52.3749	16.5583	58.7454	-60.6517	51.8037	95.141	-40.2868	18.4032	70.466	-53.2444	41.8947	81.0728	-33.4144	65.8613	116.218	-1.78061	57.6234	134.252	-9.34783	86.5243	97.9514	7.39942	87.6912	
5	0.0416667	63.3134	-13.2057	94.7429	45.4082	-19.4067	67.3458	40.6989	-22.8436	32.9034	48.5988	-27.3552	5.92985	49.503	16.0841	24.435	35.8526	8.71529	0.0475861	15.8291	3.50946	-21.2149	73.5868	3.70414	7.00256	57.8039	-7.13547	-19.2166	42.0415	-15.5603	-42.5722	76.9329	-27.5912	8.16843	60.8606	-54.462	13.5691	55.7368	-58.7971	48.1997	92.9198	-46.7552	16.7278	70.3409	-54.999	37.0793	81.6029	-36.6892	67.4702	121.234	-7.88679	51.2014	132.548	-12.8751	83.4331	100.052	7.46008	81.3336	
6	0.05	67.528	-11.9353	91.7744	44.1922	-15.1	64.671	39.0314	-18.8187	25.9785	45.8226	-27.3243	0.820147	57.5537	15.9879	18.621	38.2896	12.0925	-3.43753	27.0453	2.235	-27.2877	76.7444	2.23738	2.87965	60.6546	-8.92436	-21.9871	45.5634	-19.3914	-47.6206	80.9882	-34.2252	5.7411	60.4676	-57.0938	14.6851	56.3532	-61.4553	49.4245	94.0809	-47.7003	16.4911	71.1476	-60.4406	40.241	82.93	-41.2163	66.9799	123.428	-11.302	52.9199	133.52	-17.4089	84.857	102.846	6.2387	79.2994	
7	0.0583333	69.7706	-9.21234	93.0723	48.2251	-11.3858	61.6302	42.0986	-16.8391	25.2012	46.3925	-25.5332	-1.91695	64.277	16.2035	13.575	47.6048	8.49031	-10.8884	31.7563	2.59292	-33.6549	82.8709	-5.14235	-2.15988	64.9706	-14.3182	-26.2373	49.6863	-26.9827	-54.1485	81.6475	-40.2952	6.11625	59.2097	-60.0134	17.4192	53.3126	-58.0059	51.2398	94.6519	-53.0355	16.9389	69.4934	-62.1274	37.741	80.8396	-48.148	68.8814	125.828	-15.8386	47.5407	137.302	-22.9993	85.2564	108.044	5.40506	79.4216	
8	0.0666667	76.0538	-6.56835	84.8132	52.1006	-8.08029	58.8966	46.1325	-15.7733	25.2599	44.1163	-25.5676	-1.05981	73.2943	10.7267	6.98312	56.5201	7.59483	-14.7774	43.4145	0.00259657	-35.2411	89.8419	-11.7744	-4.52151	68.8021	-21.9314	-30.7186	54.4246	-30.0805	-50.3606	84.0056	-40.9055	7.07694	57.7091	-57.7199	17.453	54.9151	-56.2701	56.4234	91.2418	-60.4332	18.4275	67.2572	-62.7356	42.3857	80.4201	-54.4793	69.4699	131.538	-27.5046	46.5347	139.874	-31.3782	80.7175	115.415	-1.19185	75.4773	
9	0.075	79.4387	-1.8549	85.9654	56.418	-5.56294	54.6737	48.3929	-14.094	21.9139	44.8823	-24.7679	-3.93357	82.7287	4.57085	1.62418	64.6982	4.51118	-16.022	47.5973	-4.81251	-41.1844	91.5193	-16.404	-8.94201	71.7661	-27.7192	-32.1672	55.7093	-34.9925	-52.4069	84.0365	-47	7.34156	55.5127	-56.9886	19.3314	55.133	-51.1721	56.2438	88.167	-67.4082	20.7632	64.0218	-65.0434	44.6283	76.5927	-51.0013	70.9261	128.965	-33.118	49.6619	139.423	-37.9825	79.6605	123.134	-5.85045	72.3627	
10	0.0833333	86.157	-1.47655	78.8843	60.7934	-2.11529	48.4221	49.2325	-13.7416	16.4431	45.8017	-27.2096	-5.92858	89.9946	1.32359	0.545516	68.8986	-1.70081	-23.8274	56.0455	-12.3084	-43.2336	95.3969	-26.4286	-9.76405	77.2441	-36.0165	-31.0581	56.1022	-44.0599	-52.8755	79.578	-53.5005	7.2313	52.9276	-57.6073	21.7365	56.8646	-47.416	57.0552	83.9225	-71.2575	23.8866	60.3405	-63.6605	45.9202	75.9512	-49.3148	74.1071	130.094	-40.3585	50.8045	140.538	-41.9403	83.6823	124.694	-10.2597	70.0021	
11	0.0916667	88.1904	0.995394	79.3132	67.2308	-4.06098	48.9697	54.0742	-16.2769	12.2616	46.1674	-28.5871	-9.38383	92.5164	-3.75944	-4.66012	74.9325	-9.59907	-26.9529	56.2907	-16.9544	-47.6348	98.0276	-30.635	-8.37642	75.8551	-41.8301	-32.5779	54.3464	-47.5847	-53.322	78.2625	-56.0029	8.08854	51.2537	-57.2756	23.7978	59.7141	-42.0316	58.0097	77.3921	-68.014	24.9756	55.839	-60.7909	49.94	72.8626	-49.4415	74.7903	129.032	-48.3071	46.3379	137.981	-45.8891	82.7332	126.12	-10.2628	63.6894	
12	0.1	91.644	4.3648	73.8447	69.8836	-2.39844	44.659	55.64	-15.2097	14.9025	47.0952	-28.0329	-6.53842	95.4694	-9.28427	-10.3629	77.7179	-15.6502	-29.5926	59.9389	-18.5104	-47.0545	95.2689	-38.5412	-13.314	72.0075	-50.9992	-32.6838	51.2919	-57.2733	-50.989	74.306	-57.4076	9.08197	47.4173	-55.6987	28.0686	57.407	-37.3317	57.4736	73.0793	-71.9263	27.1127	53.6533	-57.079	49.3322	71.6626	-44.1109	73.0866	129.039	-51.4561	47.6154	135.479	-49.0699	82.2879	131.165	-13.9937	64.3528	
13	0.108333	97.5045	-0.253494	68.376	73.0368	-1.81239	40.2436	60.1648	-17.6879	11.9786	47.5814	-29.3044	-6.14645	98.8574	-19.8184	-9.2559	79.8559	-23.5962	-31.4382	57.8293	-27.355	-52.9083	96.5383	-50.3889	-8.48979	72.7281	-56.9058	-29.1552	46.7914	-64.8792	-50.9836	69.7618	-62.9229	11.4831	46.3598	-50.3327	24.416	51.1821	-37.3106	55.7357	71.079	-75.735	30.7074	51.2189	-54.906	53.0115	68.8985	-41.4927	71.0706	126.108	-57.0151	51.3621	134.105	-53.6269	81.5243	133.347	-18.8357	61.8373	
14	0.116667	101.029	0.204123	64.4868	75.1774	0.844943	37.1225	60.8607	-18.4529	9.94959	48.7544	-34.8889	-10.879	98.3857	-25.1588	-14.8572	77.8993	-30.3982	-33.7253	59.1395	-31.5679	-51.6078	93.148	-52.9249	-10.2659	70.1255	-62.7345	-26.9806	44.4713	-68.2772	-48.707	67.8682	-65.6867	14.1801	41.4545	-49.7596	28.681	50.5773	-30.8377	57.8647	67.4722	-74.7863	33.3221	47.1059	-55.3386	53.1114	71.4897	-38.8739	73.934	122.36	-65.6343	51.7536	133.608	-55.3251	83.4345	132.342	-25.8944	56.7406	
15	0.125	105.858	-0.307901	60.3863	79.6114	-2.69955	35.2497	61.2119	-19.0992	8.73694	48.0257	-34.8627	-6.53138	99.3087	-31.4596	-15.0704	77.6953	-33.7283	-34.9274	58.5404	-36.2244	-52.4228	88.7562	-60.356	-9.95251	64.5658	-64.2111	-29.6404	42.731	-70.2523	-46.5026	65.1241	-62.7196	14.0846	39.422	-52.5345	28.2406	46.4903	-28.8236	58.0244	62.4165	-74.9817	35.7297	46.5183	-51.3706	53.9441	70.1158	-36.6541	73.0361	120.479	-71.4679	54.3953	131.606	-63.4139	83.1734	134.19	-31.1042	58.9278	
16	0.133333	108.273	-5.28117	61.044	81.5492	-4.17128	32.2347	62.4881	-25.7074	8.57509	46.1741	-39.1504	-6.24163	97.6018	-38.4149	-15.2992	77.7992	-38.7549	-33.9436	54.0446	-45.9327	-50.9398	88.6121	-64.6134	-6.5912	62.4214	-68.202	-24.4697	36.7035	-77.0635	-39.0778	65.9648	-65.8736	18.2411	38.8847	-46.4369	31.2695	47.6134	-23.4936	58.1446	60.4804	-76.8186	39.2125	47.4747	-46.4011	55.4347	71.5642	-34.6276	73.3008	118.503	-73.1708	56.0791	131.1	-65.0271	87.6427	134.338	-36.441	59.5248	
17	0.141667	111.379	-5.92528	56.4631	83.2899	-10.4551	31.695	60.6134	-23.5826	9.14516	45.0801	-38.3939	-3.1714	95.187	-46.6219	-13.6693	75.0136	-47.5827	-31.7108	53.1343	-50.0697	-47.1022	81.4502	-71.13	-4.06472	54.9342	-73.9971	-21.9839	31.786	-76.769	-38.9961	60.407	-64.9682	19.6819	36.8656	-44.647	36.1231	48.0423	-21.5674	56.375	55.8155	-72.4794	40.3033	45.9128	-44.564	57.6803	66.8633	-33.5746	77.7838	115.357	-77.438	58.2152	130.292	-66.2859	90.3288	135.539	-38.2512	57.5984	
